<mxfile host="app.diagrams.net" modified="2021-09-11T09:45:52.520Z" agent="5.0 (Windows NT 10.0; Win64; x64) AppleWebKit/537.36 (KHTML, like Gecko) Chrome/87.0.4280.141 Safari/537.36" etag="j68CiYTNXB0rsFlCQKuD" version="15.1.2" type="github">
  <diagram name="Page-1" id="bfe91b75-5d2c-26a0-9c1d-138518896778">
    <mxGraphModel dx="1021" dy="567" grid="1" gridSize="10" guides="1" tooltips="1" connect="1" arrows="1" fold="1" page="1" pageScale="1" pageWidth="1100" pageHeight="850" background="none" math="0" shadow="0">
      <root>
        <mxCell id="0" />
        <mxCell id="1" parent="0" />
        <mxCell id="Ibl4KBg3pUFjMcp_VhZQ-12" value="&lt;font color=&quot;#00cc00&quot;&gt;FT Server license 250D&lt;br&gt;FT Gateway license concurrent&lt;/font&gt;" style="rounded=0;whiteSpace=wrap;html=1;" vertex="1" parent="1">
          <mxGeometry x="770" y="490" width="130" height="80" as="geometry" />
        </mxCell>
        <mxCell id="7c3789c024ecab99-1" value="rubor1115&lt;br&gt;" style="fontColor=#0066CC;verticalAlign=top;verticalLabelPosition=bottom;labelPosition=center;align=center;html=1;fillColor=#CCCCCC;strokeColor=#6881B3;gradientColor=none;gradientDirection=north;strokeWidth=2;shape=mxgraph.networks.pc;rounded=0;shadow=0;comic=0;" parent="1" vertex="1">
          <mxGeometry x="150.00000000000028" y="310" width="100" height="70" as="geometry" />
        </mxCell>
        <mxCell id="7c3789c024ecab99-2" value="rubor1252" style="fontColor=#0066CC;verticalAlign=top;verticalLabelPosition=bottom;labelPosition=center;align=center;html=1;fillColor=#CCCCCC;strokeColor=#6881B3;gradientColor=none;gradientDirection=north;strokeWidth=2;shape=mxgraph.networks.pc;rounded=0;shadow=0;comic=0;" parent="1" vertex="1">
          <mxGeometry x="270.0000000000003" y="310" width="100" height="70" as="geometry" />
        </mxCell>
        <mxCell id="7c3789c024ecab99-3" value="rubor1246&lt;br&gt;" style="fontColor=#0066CC;verticalAlign=top;verticalLabelPosition=bottom;labelPosition=center;align=center;html=1;fillColor=#CCCCCC;strokeColor=#6881B3;gradientColor=none;gradientDirection=north;strokeWidth=2;shape=mxgraph.networks.pc;rounded=0;shadow=0;comic=0;" parent="1" vertex="1">
          <mxGeometry x="390.0000000000003" y="310" width="100" height="70" as="geometry" />
        </mxCell>
        <mxCell id="Ibl4KBg3pUFjMcp_VhZQ-11" value="floating licenses" style="edgeStyle=orthogonalEdgeStyle;rounded=0;orthogonalLoop=1;jettySize=auto;html=1;entryX=0;entryY=0.5;entryDx=0;entryDy=0;entryPerimeter=0;" edge="1" parent="1" source="7c3789c024ecab99-4" target="Ibl4KBg3pUFjMcp_VhZQ-35">
          <mxGeometry relative="1" as="geometry">
            <mxPoint x="710.0000000000002" y="525" as="targetPoint" />
          </mxGeometry>
        </mxCell>
        <mxCell id="7c3789c024ecab99-4" value="rubor1210&lt;br&gt;" style="fontColor=#0066CC;verticalAlign=top;verticalLabelPosition=bottom;labelPosition=center;align=center;html=1;fillColor=#CCCCCC;strokeColor=#6881B3;gradientColor=none;gradientDirection=north;strokeWidth=2;shape=mxgraph.networks.pc;rounded=0;shadow=0;comic=0;" parent="1" vertex="1">
          <mxGeometry x="510.0000000000003" y="440" width="100" height="70" as="geometry" />
        </mxCell>
        <mxCell id="7c3789c024ecab99-58" value="Virtual machine host" style="fontColor=#0066CC;verticalAlign=top;verticalLabelPosition=bottom;labelPosition=center;align=center;html=1;fillColor=#CCCCCC;strokeColor=#6881B3;gradientColor=none;gradientDirection=north;strokeWidth=2;shape=mxgraph.networks.server_storage;rounded=0;shadow=0;comic=0;" parent="1" vertex="1">
          <mxGeometry x="877.5" y="310" width="105" height="105" as="geometry" />
        </mxCell>
        <mxCell id="Ibl4KBg3pUFjMcp_VhZQ-9" value="floating licenses" style="edgeStyle=orthogonalEdgeStyle;rounded=0;orthogonalLoop=1;jettySize=auto;html=1;" edge="1" parent="1" source="Ibl4KBg3pUFjMcp_VhZQ-6" target="Ibl4KBg3pUFjMcp_VhZQ-35">
          <mxGeometry relative="1" as="geometry">
            <mxPoint x="760.0000000000002" y="580" as="targetPoint" />
          </mxGeometry>
        </mxCell>
        <mxCell id="Ibl4KBg3pUFjMcp_VhZQ-6" value="rubor1204" style="fontColor=#0066CC;verticalAlign=top;verticalLabelPosition=bottom;labelPosition=center;align=center;html=1;fillColor=#CCCCCC;strokeColor=#6881B3;gradientColor=none;gradientDirection=north;strokeWidth=2;shape=mxgraph.networks.pc;rounded=0;shadow=0;comic=0;" vertex="1" parent="1">
          <mxGeometry x="510.0000000000003" y="630" width="100" height="70" as="geometry" />
        </mxCell>
        <mxCell id="Ibl4KBg3pUFjMcp_VhZQ-16" value="&lt;h1 style=&quot;font-size: 13px&quot;&gt;FT client 3&lt;/h1&gt;" style="text;html=1;strokeColor=none;fillColor=none;spacing=5;spacingTop=-20;whiteSpace=wrap;overflow=hidden;rounded=0;" vertex="1" parent="1">
          <mxGeometry x="410" y="320" width="80" height="30" as="geometry" />
        </mxCell>
        <mxCell id="Ibl4KBg3pUFjMcp_VhZQ-17" value="&lt;h1 style=&quot;font-size: 13px&quot;&gt;FT client 2&lt;/h1&gt;" style="text;html=1;strokeColor=none;fillColor=none;spacing=5;spacingTop=-20;whiteSpace=wrap;overflow=hidden;rounded=0;" vertex="1" parent="1">
          <mxGeometry x="290" y="320" width="80" height="30" as="geometry" />
        </mxCell>
        <mxCell id="Ibl4KBg3pUFjMcp_VhZQ-18" value="&lt;h1 style=&quot;font-size: 13px&quot;&gt;FT client 1&lt;/h1&gt;" style="text;html=1;strokeColor=none;fillColor=none;spacing=5;spacingTop=-20;whiteSpace=wrap;overflow=hidden;rounded=0;" vertex="1" parent="1">
          <mxGeometry x="170" y="320" width="80" height="30" as="geometry" />
        </mxCell>
        <mxCell id="Ibl4KBg3pUFjMcp_VhZQ-21" value="OPC DA, UA" style="edgeStyle=orthogonalEdgeStyle;rounded=0;orthogonalLoop=1;jettySize=auto;html=1;entryX=0.2;entryY=0.014;entryDx=0;entryDy=0;entryPerimeter=0;" edge="1" parent="1" source="Ibl4KBg3pUFjMcp_VhZQ-19">
          <mxGeometry relative="1" as="geometry">
            <mxPoint x="730.0000000000002" y="490.98" as="targetPoint" />
          </mxGeometry>
        </mxCell>
        <mxCell id="Ibl4KBg3pUFjMcp_VhZQ-19" value="&lt;h1 style=&quot;font-size: 13px&quot;&gt;FT server 1&lt;/h1&gt;&lt;div&gt;gateway&lt;/div&gt;" style="text;html=1;strokeColor=none;fillColor=none;spacing=5;spacingTop=-20;whiteSpace=wrap;overflow=hidden;rounded=0;" vertex="1" parent="1">
          <mxGeometry x="530" y="450" width="80" height="40" as="geometry" />
        </mxCell>
        <mxCell id="Ibl4KBg3pUFjMcp_VhZQ-22" value="OPC DA, UA" style="edgeStyle=orthogonalEdgeStyle;rounded=0;orthogonalLoop=1;jettySize=auto;html=1;entryX=0.09;entryY=0.843;entryDx=0;entryDy=0;entryPerimeter=0;" edge="1" parent="1" source="Ibl4KBg3pUFjMcp_VhZQ-20">
          <mxGeometry relative="1" as="geometry">
            <mxPoint x="719.0000000000002" y="549.01" as="targetPoint" />
            <Array as="points">
              <mxPoint x="720" y="650" />
            </Array>
          </mxGeometry>
        </mxCell>
        <mxCell id="Ibl4KBg3pUFjMcp_VhZQ-20" value="&lt;h1 style=&quot;font-size: 13px&quot;&gt;FT server 2&lt;/h1&gt;&lt;div&gt;gateway&lt;/div&gt;" style="text;html=1;strokeColor=none;fillColor=none;spacing=5;spacingTop=-20;whiteSpace=wrap;overflow=hidden;rounded=0;" vertex="1" parent="1">
          <mxGeometry x="530" y="640" width="80" height="40" as="geometry" />
        </mxCell>
        <mxCell id="Ibl4KBg3pUFjMcp_VhZQ-26" value="HMI data" style="endArrow=classic;startArrow=classic;html=1;entryX=0.5;entryY=1;entryDx=0;entryDy=0;entryPerimeter=0;" edge="1" parent="1" target="7c3789c024ecab99-3">
          <mxGeometry width="50" height="50" relative="1" as="geometry">
            <mxPoint x="510" y="460" as="sourcePoint" />
            <mxPoint x="540" y="420" as="targetPoint" />
            <Array as="points">
              <mxPoint x="440" y="460" />
            </Array>
          </mxGeometry>
        </mxCell>
        <mxCell id="Ibl4KBg3pUFjMcp_VhZQ-28" value="" style="endArrow=classic;startArrow=classic;html=1;entryX=0.5;entryY=1;entryDx=0;entryDy=0;entryPerimeter=0;" edge="1" parent="1" target="7c3789c024ecab99-2">
          <mxGeometry width="50" height="50" relative="1" as="geometry">
            <mxPoint x="510" y="470" as="sourcePoint" />
            <mxPoint x="540" y="420" as="targetPoint" />
            <Array as="points">
              <mxPoint x="320" y="470" />
            </Array>
          </mxGeometry>
        </mxCell>
        <mxCell id="Ibl4KBg3pUFjMcp_VhZQ-29" value="HMI data" style="endArrow=classic;startArrow=classic;html=1;entryX=0.5;entryY=1;entryDx=0;entryDy=0;entryPerimeter=0;" edge="1" parent="1" target="7c3789c024ecab99-1">
          <mxGeometry width="50" height="50" relative="1" as="geometry">
            <mxPoint x="510" y="480" as="sourcePoint" />
            <mxPoint x="540" y="420" as="targetPoint" />
            <Array as="points">
              <mxPoint x="200" y="480" />
            </Array>
          </mxGeometry>
        </mxCell>
        <mxCell id="Ibl4KBg3pUFjMcp_VhZQ-30" value="Backup of rubor0007&lt;br&gt;with licenses" style="fontColor=#0066CC;verticalAlign=top;verticalLabelPosition=bottom;labelPosition=center;align=center;html=1;outlineConnect=0;fillColor=#CCCCCC;strokeColor=#6881B3;gradientColor=none;gradientDirection=north;strokeWidth=2;shape=mxgraph.networks.storage;" vertex="1" parent="1">
          <mxGeometry x="960" y="450" width="50" height="40" as="geometry" />
        </mxCell>
        <mxCell id="Ibl4KBg3pUFjMcp_VhZQ-31" value="" style="endArrow=classic;startArrow=classic;html=1;" edge="1" parent="1" target="7c3789c024ecab99-58">
          <mxGeometry width="50" height="50" relative="1" as="geometry">
            <mxPoint x="990" y="456" as="sourcePoint" />
            <mxPoint x="760" y="500" as="targetPoint" />
            <Array as="points">
              <mxPoint x="1010" y="410" />
            </Array>
          </mxGeometry>
        </mxCell>
        <mxCell id="Ibl4KBg3pUFjMcp_VhZQ-32" value="HMI data" style="endArrow=classic;startArrow=classic;html=1;edgeStyle=isometricEdgeStyle;exitX=0.5;exitY=0.07;exitDx=0;exitDy=0;exitPerimeter=0;fillColor=#ffe6cc;strokeColor=#d79b00;" edge="1" parent="1" source="Ibl4KBg3pUFjMcp_VhZQ-6">
          <mxGeometry width="50" height="50" relative="1" as="geometry">
            <mxPoint x="480" y="570" as="sourcePoint" />
            <mxPoint x="420" y="380" as="targetPoint" />
          </mxGeometry>
        </mxCell>
        <mxCell id="Ibl4KBg3pUFjMcp_VhZQ-33" value="HMI data" style="endArrow=classic;startArrow=classic;html=1;edgeStyle=isometricEdgeStyle;exitX=0.35;exitY=0;exitDx=0;exitDy=0;exitPerimeter=0;fillColor=#ffe6cc;strokeColor=#d79b00;" edge="1" parent="1" source="Ibl4KBg3pUFjMcp_VhZQ-6">
          <mxGeometry width="50" height="50" relative="1" as="geometry">
            <mxPoint x="454.6300000000002" y="634.9000000000001" as="sourcePoint" />
            <mxPoint x="314.63" y="380" as="targetPoint" />
          </mxGeometry>
        </mxCell>
        <mxCell id="Ibl4KBg3pUFjMcp_VhZQ-34" value="HMI data" style="endArrow=classic;startArrow=classic;html=1;edgeStyle=isometricEdgeStyle;exitX=0.19;exitY=-0.014;exitDx=0;exitDy=0;exitPerimeter=0;fillColor=#ffe6cc;strokeColor=#d79b00;entryX=0.5;entryY=1;entryDx=0;entryDy=0;entryPerimeter=0;" edge="1" parent="1" source="Ibl4KBg3pUFjMcp_VhZQ-6" target="7c3789c024ecab99-1">
          <mxGeometry width="50" height="50" relative="1" as="geometry">
            <mxPoint x="303.92000000000024" y="634.9000000000001" as="sourcePoint" />
            <mxPoint x="163.92000000000002" y="380" as="targetPoint" />
            <Array as="points">
              <mxPoint x="420" y="530" />
              <mxPoint x="380" y="490" />
            </Array>
          </mxGeometry>
        </mxCell>
        <mxCell id="Ibl4KBg3pUFjMcp_VhZQ-35" value="rubor0007&lt;br&gt;virtual" style="fontColor=#0066CC;verticalAlign=top;verticalLabelPosition=bottom;labelPosition=center;align=center;html=1;outlineConnect=0;fillColor=#CCCCCC;strokeColor=#6881B3;gradientColor=none;gradientDirection=north;strokeWidth=2;shape=mxgraph.networks.desktop_pc;" vertex="1" parent="1">
          <mxGeometry x="720" y="490" width="30" height="60" as="geometry" />
        </mxCell>
      </root>
    </mxGraphModel>
  </diagram>
</mxfile>
